<svg id="Layer_1" data-name="Layer 1" xmlns="http://www.w3.org/2000/svg" xmlns:xlink="http://www.w3.org/1999/xlink" viewBox="0 0 481.51 532.72" width="406" height="306" class="illustration styles_illustrationTablet__1DWOa"><defs><linearGradient id="linear-gradient" x1="328.1" y1="295.55" x2="416.51" y2="423.94" gradientUnits="userSpaceOnUse"><stop offset="0.01"></stop><stop offset="0.13" stop-opacity="0.69"></stop><stop offset="1" stop-opacity="0"></stop></linearGradient><linearGradient id="linear-gradient-2" x1="122.53" y1="313.49" x2="222.2" y2="301.66" xlink:href="#linear-gradient"></linearGradient><linearGradient id="linear-gradient-3" x1="290.51" y1="551.14" x2="289.66" y2="367.84" xlink:href="#linear-gradient"></linearGradient><linearGradient id="linear-gradient-4" x1="311.38" y1="447.99" x2="303.22" y2="552.73" xlink:href="#linear-gradient"></linearGradient><linearGradient id="linear-gradient-5" x1="261.21" y1="447.73" x2="276.42" y2="502.92" xlink:href="#linear-gradient"></linearGradient><linearGradient id="linear-gradient-6" x1="306.39" y1="248.69" x2="393.11" y2="413.12" xlink:href="#linear-gradient"></linearGradient><linearGradient id="linear-gradient-7" x1="408.93" y1="174.26" x2="301.43" y2="174.26" xlink:href="#linear-gradient"></linearGradient></defs><title>Fitness 3</title><path d="M75,424.89c5.79-26.25,22.74-50.9,19.26-77.55C91.92,329.4,80.62,314.13,73,297.71c-20.93-45.29-13-99.33,7-145.06,6.46-14.82,14.2-29.25,24.83-41.43,13-14.85,29.68-25.82,46.3-36.39C188.58,51,227.82,27.71,271.55,20,352.36,5.88,439.81,54.1,471,130c17,41.46,18.17,87.72,31.48,130.52,14.84,47.72,45,93.54,39,143.14-2.85,23.32-13.76,45.06-27.82,63.87a205.62,205.62,0,0,1-119.28,77c-34.65,7.64-70.58,6.09-106,4.51-44.56-2-99.8,5.13-142.45-9.85C98.1,522.4,62.73,477.42,75,424.89Z" transform="translate(-60.68 -17.58)" fill="#00fcff" opacity="0.17"></path><path d="M270.39,188.62a17.26,17.26,0,0,1-4.46-.28c-8.29-1.14-26.7-12.72-40.79-24.72-12.06-10.28-30.09-14.33-30.09-14.33l3.33-12.46s14.69,7.25,38,17c22,9.26,34.25,17.54,44.35,23.84C283.83,180.9,273.76,188.58,270.39,188.62Z" transform="translate(-60.68 -17.58)" fill="#e09d80"></path><path d="M271.29,188.75c-5,1-9-13.92-1.14-16.82,20.51-5.28,101.28-33.19,111.26-13.68,0,0,11.3,14.49-10.44,20.78-15.4,4.47-48.71-1.16-60,1C303.12,181.56,277.85,186.58,271.29,188.75Z" transform="translate(-60.68 -17.58)" fill="#e09d80"></path><path d="M213,143.81s-7.4-4.74-10.4-8.4c-2.42-2.94-4.08-3.56-9.1-7.76-5.45-4.57-5.35-5.3-6.69-7.26s-5.94-.71-2.19,4.67,5,6.07,5,6.07-8.39-4.87-12.85-7.39-7.95-5.11-8.86-2.77c-.48,1.19.62,2.83,6.42,6.46s12.3,7.8,12.3,7.8-22.34-13.34-23.82-10.76c-.94,1.65.36,3.32,7.53,7.22S184.53,139,184.53,139l-21.62-9.26c-2-.87-5.12,2,2.66,5.32s18,7.61,18,7.61-17.86-6.73-19-4.59c-1.44,2.75,8.33,5,18.67,8.55s10.42,2.58,13.49,2.62,11.45,4.41,11.45,4.41Z" transform="translate(-60.68 -17.58)" fill="#e09d80"></path><path d="M317.74,368.94c1.09,1,3.66,2.36,4.46,3.6,7.28,11.37,13.39,32.07,12.4,48.89a250.54,250.54,0,0,0,1.87,44l-10.68,7.36s-5-16.74-11.56-44.79c-7.57-32.45-17.09-52.31-18-64.9C297.12,358.36,315.38,366.15,317.74,368.94Z" transform="translate(-60.68 -17.58)" fill="#f4a886"></path><path d="M335.38,455.65a240.55,240.55,0,0,1-.78-34.22c1-16.82-5.12-37.52-12.4-48.89-.8-1.24-3.37-2.62-4.46-3.6-2.36-2.79-20.62-10.58-21.52-5.88.92,12.59,10.44,32.45,18,64.9,2.75,11.8,5.23,21.6,7.18,29Z" transform="translate(-60.68 -17.58)" fill="#f4a886"></path><path d="M323.07,473.43l-1.1-7.6s10.38.33,15.43-3.32l1.78,5.55S336.83,476.61,323.07,473.43Z" transform="translate(-60.68 -17.58)" fill="#fff"></path><path d="M323.11,369.61c-3.47,4.16-27.57,9.38-28.75-5.92,1.62-9.3,8-15.4,11.62-21.44,18.06-30.07,30-61.54,57.79-88.16,0,0,49.83,19.86,30.88,34.66-24.38,19-46.86,50.72-59.9,63.89C326.18,361.29,329.28,357.57,323.11,369.61Z" transform="translate(-60.68 -17.58)" fill="#3f3d56"></path><path d="M323.11,369.61c-3.47,4.16-27.57,9.38-28.75-5.92,1.62-9.3,8-15.4,11.62-21.44,18.06-30.07,30-61.54,57.79-88.16,0,0,49.83,19.86,30.88,34.66-24.38,19-46.86,50.72-59.9,63.89C326.18,361.29,329.28,357.57,323.11,369.61Z" transform="translate(-60.68 -17.58)" fill="url(#linear-gradient)"></path><path d="M209.21,242.86a34.48,34.48,0,0,0,8.58,1.22,4,4,0,0,0-.15-8c-1.29,0-31-.18-33.36-42.1l1.14-81.22a4,4,0,0,0-8-.11L176.26,194a2.43,2.43,0,0,0,0,.27c1.41,25.85,12.51,38,21.55,43.72A40.62,40.62,0,0,0,209.21,242.86Z" transform="translate(-60.68 -17.58)" fill="#797b7d"></path><path d="M179.36,155.59a6.17,6.17,0,0,0,1.43.2,6,6,0,0,0,6.12-5.95l.52-37.09a6,6,0,0,0-12.06-.17l-.52,37.1A6,6,0,0,0,179.36,155.59Z" transform="translate(-60.68 -17.58)" fill="#27272d"></path><polygon points="280.56 428.99 295.31 431.14 316.64 300.46 301.9 298.31 280.56 428.99" fill="#949699"></polygon><polygon points="165.9 406.06 192.09 416.03 167.4 215.6 145.59 199.95 165.9 406.06" fill="#949699"></polygon><polygon points="165.9 406.06 192.09 416.03 167.4 215.6 145.59 199.95 165.9 406.06" fill="url(#linear-gradient-2)"></polygon><path d="M387.15,515.57l-3.76-6.88a43.13,43.13,0,0,0,6.37-7.92C388.67,502.65,384.41,510.55,387.15,515.57Z" transform="translate(-60.68 -17.58)" fill="#4a4850"></path><path d="M387.2,515.66l7.92,14.55L306,529.68v-.17l-120.56.9,10.62-19.49c.07-.16.16-.33.25-.51,3.92-7.17-2.73-18.67-3.74-20.34l-.13-.2A57.53,57.53,0,0,1,254.34,404h0l9.29,3,90.12,28.83A42.54,42.54,0,0,1,390,500.36l-.25.41a43.13,43.13,0,0,1-6.37,7.92l3.76,6.88Z" transform="translate(-60.68 -17.58)" fill="#4a4850"></path><path d="M387.2,515.66l7.92,14.55L306,529.68v-.17l-120.56.9,10.62-19.49c.07-.16.16-.33.25-.51,3.92-7.17-2.73-18.67-3.74-20.34l-.13-.2A57.53,57.53,0,0,1,254.34,404h0l9.29,3,90.12,28.83A42.54,42.54,0,0,1,390,500.36l-.25.41a43.13,43.13,0,0,1-6.37,7.92l3.76,6.88Z" transform="translate(-60.68 -17.58)" fill="url(#linear-gradient-3)"></path><path d="M263.66,406.93l-9.29-3A56.19,56.19,0,0,1,263.66,406.93Z" transform="translate(-60.68 -17.58)" fill="#4a4850"></path><path d="M185,538.78a4.15,4.15,0,0,0,4.15,4.14H391.46a4.14,4.14,0,0,0,4.15-4.14v-6.6a4.15,4.15,0,0,0-4.15-4.15H189.19a4.16,4.16,0,0,0-4.15,4.15Z" transform="translate(-60.68 -17.58)" fill="#4a4850"></path><path d="M331.94,299s21.44-1.72,52.26-4.59,35.11,29.23,23.23,38.4-18.18,3.44-29.64-4-24.66-8.63-39-12.92S321.62,303.59,331.94,299Z" transform="translate(-60.68 -17.58)" fill="#27272d"></path><path d="M333.43,474.71a28.8,28.8,0,1,0-11.31,39.13A28.8,28.8,0,0,0,333.43,474.71Z" transform="translate(-60.68 -17.58)" fill="#4a4850"></path><path d="M333.43,474.71a28.8,28.8,0,1,0-11.31,39.13A28.8,28.8,0,0,0,333.43,474.71Z" transform="translate(-60.68 -17.58)" fill="url(#linear-gradient-4)"></path><path d="M312.4,486.31a4.78,4.78,0,1,0-1.89,6.49A4.76,4.76,0,0,0,312.4,486.31Z" transform="translate(-60.68 -17.58)" fill="#e4dcd1"></path><path d="M309.66,489.63a5.87,5.87,0,0,0-.11-4.4c-.94-2.26-3.13-4.06-6.53-5.37-7.21-2.77-37.91-14.34-38.23-14.45l-1.48,3.93c.31.12,31,11.68,38.19,14.45,2.22.85,3.7,1.94,4.16,3.06a2,2,0,0,1,.15,1.1Z" transform="translate(-60.68 -17.58)" fill="#e4dcd1"></path><path d="M297.29,459.41a5.11,5.11,0,0,0-6-4l-52.42,9.81a5.11,5.11,0,0,0-4,6h0a5.11,5.11,0,0,0,6,4l52.42-9.8a5.13,5.13,0,0,0,4-6Z" transform="translate(-60.68 -17.58)" fill="#e4dcd1"></path><path d="M297.29,459.41a5.11,5.11,0,0,0-6-4l-52.42,9.81a5.11,5.11,0,0,0-4,6h0a5.11,5.11,0,0,0,6,4l52.42-9.8a5.13,5.13,0,0,0,4-6Z" transform="translate(-60.68 -17.58)" fill="url(#linear-gradient-5)"></path><path d="M206.17,243.46a34.91,34.91,0,0,0,8.13,3,4,4,0,0,0,1.59-7.88c-1.28-.27-30.23-6.86-23.5-48.3L211,111.25a4,4,0,0,0-7.83-1.84l-18.64,79.2c0,.09-.05.18-.06.26-4.2,25.56,4,39.86,11.62,47.35A40.7,40.7,0,0,0,206.17,243.46Z" transform="translate(-60.68 -17.58)" fill="#949699"></path><path d="M195.86,151.81a6,6,0,0,0,1.36.5,6,6,0,0,0,7.24-4.48L213,111.71A6,6,0,0,0,201.24,109l-8.5,36.11A6,6,0,0,0,195.86,151.81Z" transform="translate(-60.68 -17.58)" fill="#27272d"></path><path d="M241.23,257.34,213.16,239s-18.54-11.13-18.42-30.13c.06-8.6,3.6-19,21.28-5.23S283.15,287.41,241.23,257.34Z" transform="translate(-60.68 -17.58)" fill="#6d6e70"></path><path d="M273.75,337.15c1,1.08,3.45,2.68,4.13,4,6.26,12,10.55,33.12,8.09,49.79a250,250,0,0,0-2,44l-11.28,6.4s-3.54-17.12-7.6-45.64c-4.71-33-12.46-53.6-12.29-66.22C254.14,324.82,271.65,334.18,273.75,337.15Z" transform="translate(-60.68 -17.58)" fill="#e3ad83"></path><path d="M276.06,343c-5,2-28.71-4.76-22.54-18.81,5.83-7.43,14.33-9.79,20.38-13.4,30.12-18,55.52-40.06,92.58-50.4,0,0,34.53,41,10.85,45.13-30.49,5.27-65.27,22.57-83,28C282.71,337.08,287.2,335.26,276.06,343Z" transform="translate(-60.68 -17.58)" fill="#f4a886"></path><path d="M283.76,425.08A239.14,239.14,0,0,1,286,390.92c2.46-16.67-1.83-37.82-8.09-49.79-.68-1.3-3.12-2.9-4.13-4-2.1-3-19.61-12.33-20.93-7.73-.17,12.62,7.58,33.24,12.29,66.22,1.71,12,3.32,22,4.62,29.51Z" transform="translate(-60.68 -17.58)" fill="#f4a886"></path><path d="M407.84,266a20.55,20.55,0,0,1-1,7.25c-.83,2.14-15.22,28.06-17.42,28.69-.27.08-.53.15-.8.21a16.56,16.56,0,0,1-7.58,4.84c-5.18,1.78-10.88,2.4-16.21,4.22l-21.95,7.5-43.9,15c-8,2.75-16.82,6.43-25.53,6.82a28,28,0,0,1-9.68-1.16c-6.77-2.1-16.56-8.43-13.72-16.94s16-14.11,22.78-18.26l63.23-38.5c2.19-1.34,4.45-2.7,6.78-4A12.12,12.12,0,0,1,343,260a5.41,5.41,0,0,1,1.06-3c.95-1,2.5-1.16,3.9-1.25,15.57-1.06,26.61-7.77,39.6-15.4C402.71,231.41,408,255.68,407.84,266Z" transform="translate(-60.68 -17.58)" fill="#3f3d56"></path><path d="M407.84,266a20.55,20.55,0,0,1-1,7.25c-.83,2.14-15.22,28.06-17.42,28.69-.27.08-.53.15-.8.21a16.56,16.56,0,0,1-7.58,4.84c-5.18,1.78-10.88,2.4-16.21,4.22l-21.95,7.5-43.9,15c-8,2.75-16.82,6.43-25.53,6.82a28,28,0,0,1-9.68-1.16c-6.77-2.1-16.56-8.43-13.72-16.94s16-14.11,22.78-18.26l63.23-38.5c2.19-1.34,4.45-2.7,6.78-4A12.12,12.12,0,0,1,343,260a5.41,5.41,0,0,1,1.06-3c.95-1,2.5-1.16,3.9-1.25,15.57-1.06,26.61-7.77,39.6-15.4C402.71,231.41,408,255.68,407.84,266Z" transform="translate(-60.68 -17.58)" fill="url(#linear-gradient-6)"></path><path d="M269.94,441.71l-.43-7.66s10.31,1.23,15.66-2l1.29,5.69S283.37,446.08,269.94,441.71Z" transform="translate(-60.68 -17.58)" fill="#fff"></path><path d="M257.16,450.72a41.52,41.52,0,0,0-4.86,3.18,7.14,7.14,0,0,0-2.82,4.31,3.78,3.78,0,0,0,2.63,4,10.34,10.34,0,0,0,4,.27,119.79,119.79,0,0,0,35.48-8,5.35,5.35,0,0,0,1.83-1,2.91,2.91,0,0,0,.75-1.83c.6-5-2.67-9.52-5.82-13.73a3,3,0,0,0-1.09-1c-1.19-.53-2.69.15-3.9.74A30.93,30.93,0,0,1,274,440.4c-1.82.25-4.26-.15-6,.5-2,.78-2.9,3.3-4.2,4.67A33.15,33.15,0,0,1,257.16,450.72Z" transform="translate(-60.68 -17.58)" fill="#0c040d"></path><path d="M261.52,456.84c-3.85.36-7.71.69-11.54,1.19a2.38,2.38,0,0,0-1,.3,1.62,1.62,0,0,0-.51.69,5,5,0,0,0-.68,2.5,1.24,1.24,0,0,0,.45.91,2.85,2.85,0,0,0,1.7.32,144.39,144.39,0,0,0,37.61-5.27,26.82,26.82,0,0,0,5.34-2,3.94,3.94,0,0,0,1.73-1.49c.46-.93.2-2.17.32-3.15a61.4,61.4,0,0,0-6.22,1.75q-3.19.81-6.45,1.44c-4.35.85-8.76,1.48-13.18,2C266.54,456.34,264,456.59,261.52,456.84Z" transform="translate(-60.68 -17.58)" fill="#fff"></path><path d="M314.64,77.64c3.28-8.34,13.9-10.33,21.7-10.73,7.51-.39,14.53-.44,20.88,3.84a39.9,39.9,0,0,1,14.21,16.94c2.24,5.08,3.46,10.75,7,15,4.37,5.33,11.77,7.89,15.11,13.92,4.84,8.73-1.15,20,1.87,29.48.84,2.62,2.35,5,2.73,7.77.7,5-2.41,9.4-5.34,13.11-.78,1-8.24,10.84-8.29,10.8-6.83-5.58-14-10.8-20.18-17.07S352.84,147,350.76,138.4c-1.16-4.79-1.29-9.78-2.24-14.63a43.82,43.82,0,0,0-11.07-21.23C331.52,96.2,324.79,93.2,317,90,313,88.4,313.29,81.07,314.64,77.64Z" transform="translate(-60.68 -17.58)" fill="#3b1a13"></path><path d="M336.77,149.53a41.84,41.84,0,0,0,3.39-8.55,32.87,32.87,0,0,0,.41-10.57,36.58,36.58,0,0,1-.3-7.24,9.34,9.34,0,0,1,3.08-6.37c3.17-2.55,5.82-10.25,9-7.68s7.22,15,8.93,18.69l3.65,7.9a5.33,5.33,0,0,1,.67,2.41,5.25,5.25,0,0,1-1.64,3l-7.07,8.06c-3.4,3.87-6.87,7.8-11.28,10.46-3.63,2.19-10.64,4.66-14.54,1.88C332.51,157.43,334.86,153.46,336.77,149.53Z" transform="translate(-60.68 -17.58)" fill="#f4a886"></path><path d="M346.21,255.76a7.15,7.15,0,0,0,1.32,3.74c1.09,1.26,2.9,1.58,4.56,1.74a54.77,54.77,0,0,0,46.59-19.15c-4.34-4.55-11-6.48-14.87-11.47-8.11-10.55,1.36-26.88-4.47-38.84-1.64-3.35-41.22,10-43.95,15.57-2.84,5.82,3.24,16,4.89,21.66A220.15,220.15,0,0,1,346.21,255.76Z" transform="translate(-60.68 -17.58)" fill="#f4a886"></path><path d="M384,186.58c-.21,3.52-.61,7.33-3.06,9.86a12.71,12.71,0,0,1-3.51,2.4l-1,.48-.84.41-.18.09-7.13,3.47c-2.08,1-4.17,2-6.28,3a54.14,54.14,0,0,1-16.18,4.95c-7.93.88-16.69-1.42-21.54-7.75-3.8-5-4.66-11.72-3.69-17.92s3.57-12,6.15-17.7c1.39-3.07,3-6.07,4.62-9a40.6,40.6,0,0,1,2.78-4.5c1.48-2,3.75-2.48,6-3.43a44,44,0,0,0,9.43-5.1c2-1.48,3.69-3.24,5.65-4.72,3-2.3,6.84-3.91,10.62-3.39a15.41,15.41,0,0,1,7.85,4.1c.49.43,1,.88,1.42,1.33a27.17,27.17,0,0,1,5.32,7,16.26,16.26,0,0,1,1.54,7.71v.65c0,2.78,1.26,5.84,1.67,8.66A96.77,96.77,0,0,1,384,186.58Z" transform="translate(-60.68 -17.58)" fill="#00fcff"></path><path d="M384,186.58c-.21,3.52-.61,7.33-3.06,9.86a12.71,12.71,0,0,1-3.51,2.4c-.6.28-1.21.58-1.81.89l-.18.09c-4.54,2.36-9.08,5.38-13.62,7.08q.11-.3.21-.63A86,86,0,0,0,364.64,192c.33-3,.41-6.15-.75-8.94a40.7,40.7,0,0,0-2.59-4.53c-4.72-8.14-4.49-19.81-3.07-28.88.93-5.89,9-8.79,15.4-7.81.49.43,1,.88,1.42,1.33a27.17,27.17,0,0,1,5.32,7,16.26,16.26,0,0,1,1.54,7.71v.65c0,2.78,1.26,5.84,1.67,8.66A96.77,96.77,0,0,1,384,186.58Z" transform="translate(-60.68 -17.58)" fill="url(#linear-gradient-7)"></path><path d="M316,89.26a7.8,7.8,0,0,0-1.08,4.31c-.08,5.73,2.33,11.54.81,17.07a26.27,26.27,0,0,0-.93,3.37,3.7,3.7,0,0,0,.94,3.22,8.58,8.58,0,0,0,1.85,1c3.63,1.92,4.28,6.7,6,10.41a3.78,3.78,0,0,0,4.25,2.63c5-.22,9.72-2.63,13.55-5.86s6.87-7.28,9.83-11.33a38.4,38.4,0,0,0,3.3-5.08,9.79,9.79,0,0,0,1.19-6.68c-.56-2.24-2.71-4.19-5-3.89a4.23,4.23,0,0,1-2.11.13,2.93,2.93,0,0,1-1-.84,37.94,37.94,0,0,0-15.56-10.31C327.48,85.83,319.39,84.31,316,89.26Z" transform="translate(-60.68 -17.58)" fill="#f4a886"></path><path d="M317.23,89.91c2.2,5.26,7.39,8.72,12.77,10.63,7.49,2.67,16.39,2.71,22.84-1.93-6-4.71-8.81-12.6-14.79-17.33a36.51,36.51,0,0,0-6.91-4,28.35,28.35,0,0,0-7.5-2.73c-2.74-.45-3.73-.16-5.22,2.23A14.55,14.55,0,0,0,317.23,89.91Z" transform="translate(-60.68 -17.58)" fill="#3b1a13"></path><line x1="189.83" y1="170.64" x2="189.83" y2="171.2" fill="none"></line><path d="M280.06,192.06a17.81,17.81,0,0,1-4.45-.49c-8.22-1.54-26.06-14-39.56-26.64-11.56-10.84-29.37-15.74-29.37-15.74l3.91-12.29s14.34,7.94,37.15,18.83c21.55,10.29,33.39,19.15,43.17,25.93C293.85,185,283.41,192.18,280.06,192.06Z" transform="translate(-60.68 -17.58)" fill="#f4a886"></path><path d="M279.91,192c-4.36.86-6.74-14,.24-16.74,18-4.9,89.82-42.09,97-22.55,0,0,6.65,15.75-12.45,21.66-13.53,4.18-40.26,7.65-50.12,9.63C307.72,185.38,285.7,190,279.91,192Z" transform="translate(-60.68 -17.58)" fill="#f4a886"></path><path d="M224.9,144.57s-7.16-5.09-10-8.89c-2.27-3.05-3.9-3.74-8.72-8.18-5.23-4.83-5.09-5.55-6.34-7.57s-5.89-1-2.41,4.55,4.73,6.3,4.73,6.3-8.16-5.25-12.5-8-7.69-5.48-8.72-3.18c-.53,1.16.49,2.84,6.12,6.74S199,134.74,199,134.74s-21.68-14.4-23.28-11.89c-1,1.62.21,3.35,7.16,7.58s13.8,7.95,13.8,7.95L175.5,128.11c-2-1-5.21,1.78,2.41,5.43L195.5,142s-17.52-7.58-18.74-5.48c-1.57,2.68,8.08,5.37,18.24,9.42s10.29,3.09,13.36,3.27,11.22,4.94,11.22,4.94Z" transform="translate(-60.68 -17.58)" fill="#f4a886"></path></svg>